<?xml version="1.0" standalone="no"?>
<!DOCTYPE svg PUBLIC "-//W3C//DTD SVG 20010904//EN"
 "http://www.w3.org/TR/2001/REC-SVG-20010904/DTD/svg10.dtd">
<svg version="1.0" xmlns="http://www.w3.org/2000/svg"
 width="690.000000pt" height="309.000000pt" viewBox="0 0 690.000000 309.000000"
 preserveAspectRatio="xMidYMid meet">

<g transform="translate(0.000000,309.000000) scale(0.100000,-0.100000)"
fill="#000000" stroke="none">
<path d="M640 2506 c-161 -45 -304 -187 -345 -341 -31 -121 -13 -268 45 -370
45 -78 137 -160 227 -202 68 -32 90 -37 170 -41 121 -6 167 6 288 71 46 25
133 115 164 171 124 218 63 487 -144 638 -107 78 -277 109 -405 74z"/>
<path d="M1725 2506 c-211 -67 -355 -255 -355 -463 0 -199 99 -356 279 -446
l84 -42 122 0 122 0 84 42 c93 46 154 99 203 177 59 92 71 138 71 266 0 104
-3 122 -29 182 -54 129 -182 240 -325 282 -65 19 -199 20 -256 2z"/>
<path d="M3200 1990 c-229 -29 -382 -108 -436 -225 -44 -94 -25 -182 50 -237
85 -63 180 -94 426 -138 92 -17 170 -36 178 -44 35 -35 -30 -76 -120 -76 -122
1 -364 48 -463 90 -88 38 -86 41 -83 -127 l3 -147 59 -17 c174 -52 584 -65
776 -24 167 35 285 108 334 208 44 88 29 159 -49 222 -75 62 -187 102 -420
150 -71 15 -145 33 -162 41 -40 16 -44 47 -8 70 53 35 382 2 507 -50 21 -9 40
-16 43 -16 3 0 5 65 5 145 l0 144 -32 5 c-18 3 -60 11 -93 16 -78 14 -431 21
-515 10z"/>
<path d="M4431 1973 c-20 -4 -57 -73 -252 -470 -126 -256 -229 -467 -229 -469
0 -3 111 -3 246 -2 l246 3 69 169 c37 92 70 171 73 174 3 3 38 -11 78 -31 122
-61 213 -148 269 -259 l29 -58 245 0 c135 0 245 2 245 4 0 3 -48 106 -185 391
-29 61 -98 207 -155 325 -56 118 -107 218 -113 222 -12 8 -522 8 -566 1z m303
-280 c2 -10 21 -70 40 -134 20 -63 36 -121 36 -127 0 -9 -31 -12 -106 -12 -81
0 -105 3 -101 13 3 6 29 72 58 145 29 72 56 132 60 132 4 0 10 -8 13 -17z"/>
<path d="M5300 1815 l0 -165 205 0 205 0 0 -310 0 -310 200 0 200 0 0 310 0
310 205 0 205 0 0 165 0 165 -610 0 -610 0 0 -165z"/>
<path d="M686 1429 c-84 -12 -195 -70 -264 -138 -98 -98 -142 -207 -142 -353
0 -295 281 -523 575 -469 121 22 245 103 314 206 197 291 28 689 -318 751 -85
15 -83 15 -165 3z"/>
<path d="M1780 1430 c-126 -23 -253 -102 -322 -200 -21 -31 -50 -92 -64 -138
-23 -72 -26 -95 -22 -176 5 -84 9 -102 46 -178 66 -137 180 -229 324 -263 172
-40 332 6 458 134 107 107 146 212 138 364 -8 135 -55 237 -153 332 -99 96
-273 149 -405 125z"/>
</g>
</svg>
